<?xml version="1.0" encoding="utf-8"?>
<!-- Generator: Adobe Illustrator 23.0.3, SVG Export Plug-In . SVG Version: 6.00 Build 0)  -->
<svg version="1.1" id="Layer_1" xmlns="http://www.w3.org/2000/svg" xmlns:xlink="http://www.w3.org/1999/xlink" x="0px" y="0px"
	 viewBox="0 0 595.28 841.89" style="enable-background:new 0 0 595.28 841.89;" xml:space="preserve">
<style type="text/css">
	.st0{fill:#E53E2A;}
	.st1{fill:#A52A22;}
	.st2{fill:#6EC069;}
	.st3{fill:#468447;}
	.st4{fill:#5FBAE9;}
	.st5{fill:#1180BB;}
	.st6{fill:#FFFFFF;}
	.st7{fill:#FED625;}
	.st8{fill:#D67E28;}
</style>
<g>
	<g>
		<g>
			<polygon class="st0" points="195.54,305.81 135.95,237.87 197.42,260.85 			"/>
		</g>
		<g>
			<path class="st1" d="M195.54,306.9c-0.45,0-0.88-0.17-1.14-0.47l-59.59-67.94c-0.35-0.4-0.32-0.95,0.09-1.32
				c0.41-0.37,1.08-0.49,1.65-0.27l61.47,22.98c0.5,0.19,0.81,0.58,0.79,1.01l-1.88,44.96c-0.02,0.47-0.42,0.87-1,1.01
				C195.8,306.88,195.67,306.9,195.54,306.9z M140.02,240.59l54.28,61.88l1.71-40.95L140.02,240.59z"/>
		</g>
	</g>
	<g>
		<g>
			<polygon class="st2" points="222.75,270.32 135.95,237.87 179.35,214.57 			"/>
		</g>
		<g>
			<path class="st3" d="M222.75,271.4c-0.2,0-0.41-0.03-0.6-0.11l-86.8-32.45c-0.45-0.17-0.75-0.51-0.78-0.89
				c-0.04-0.39,0.19-0.76,0.6-0.98l43.4-23.31c0.31-0.17,0.7-0.23,1.07-0.17c0.37,0.06,0.7,0.24,0.89,0.5l43.4,55.75
				c0.32,0.41,0.26,0.93-0.15,1.29C223.51,271.28,223.13,271.4,222.75,271.4z M138.71,237.7l80.43,30.07l-40.22-51.66L138.71,237.7z
				"/>
		</g>
	</g>
	<g>
		<g>
			<polygon class="st0" points="264.21,55.35 264.21,80.45 117.81,73.6 			"/>
		</g>
		<g>
			<path class="st1" d="M264.21,81.53c-0.03,0-0.06,0-0.08,0l-146.4-6.85c-0.71-0.03-1.27-0.48-1.3-1.03
				c-0.03-0.55,0.47-1.04,1.17-1.12l146.4-18.25c0.4-0.05,0.81,0.04,1.12,0.25c0.31,0.21,0.49,0.51,0.49,0.82v25.1
				c0,0.3-0.16,0.58-0.44,0.79C264.9,81.43,264.56,81.53,264.21,81.53z M130.55,73.11l132.27,6.19V56.62L130.55,73.11z"/>
		</g>
	</g>
	<g>
		<g>
			<polygon class="st2" points="117.81,73.6 142.13,111.84 341.94,84.08 			"/>
		</g>
		<g>
			<path class="st3" d="M142.13,112.93c-0.52,0-1-0.23-1.24-0.6l-24.32-38.24c-0.22-0.35-0.19-0.76,0.08-1.08
				c0.27-0.32,0.75-0.51,1.24-0.48L342.02,83c0.7,0.03,1.26,0.47,1.3,1.02c0.04,0.55-0.45,1.03-1.14,1.13l-199.81,27.76
				C142.29,112.92,142.21,112.93,142.13,112.93z M120.12,74.79l22.79,35.84l187.25-26.02L120.12,74.79z"/>
		</g>
	</g>
	<g>
		<g>
			<polygon class="st4" points="341.94,84.08 103.56,117.2 222.75,270.32 341.94,234.69 			"/>
		</g>
		<g>
			<path class="st5" d="M222.75,271.4c-0.47,0-0.93-0.19-1.18-0.52L102.38,117.77c-0.24-0.31-0.27-0.68-0.08-1.01
				c0.19-0.33,0.57-0.56,1.02-0.62L341.7,83.02c0.4-0.06,0.82,0.03,1.13,0.24c0.31,0.21,0.5,0.51,0.5,0.83v150.6
				c0,0.45-0.35,0.85-0.89,1.01l-119.19,35.63C223.08,271.38,222.91,271.4,222.75,271.4z M105.8,117.99l117.54,150.99l117.22-35.04
				V85.38L105.8,117.99z"/>
		</g>
	</g>
	<g>
		<g>
			<polygon class="st6" points="305.1,166.25 313.29,175.42 327.58,175.33 318.97,184.27 323.49,194.88 309.97,191.23 
				298.47,197.87 298.73,186.69 287.11,180.18 300.78,176.91 			"/>
		</g>
		<g>
			<path class="st5" d="M298.47,199.01c-0.23,0-0.46-0.04-0.66-0.13c-0.49-0.2-0.79-0.6-0.78-1.03l0.25-10.59l-11.01-6.16
				c-0.45-0.25-0.68-0.68-0.59-1.11c0.09-0.43,0.48-0.78,1.01-0.9l12.94-3.09l4.09-10.1c0.17-0.41,0.62-0.71,1.16-0.78
				c0.54-0.07,1.09,0.12,1.41,0.47l7.75,8.68l13.53-0.08c0,0,0.01,0,0.01,0c0.55,0,1.05,0.24,1.29,0.62
				c0.25,0.39,0.19,0.85-0.14,1.19l-8.15,8.46l4.28,10.05c0.17,0.41,0.04,0.86-0.36,1.16c-0.39,0.3-0.97,0.41-1.49,0.27l-12.79-3.46
				l-10.89,6.29C299.08,198.93,298.78,199.01,298.47,199.01z M290.34,180.59l9.24,5.17c0.39,0.22,0.61,0.57,0.61,0.94l-0.21,8.89
				l9.14-5.28c0.38-0.22,0.88-0.28,1.33-0.16l10.74,2.9l-3.59-8.44c-0.15-0.35-0.07-0.74,0.22-1.04l6.84-7.1l-11.36,0.07
				c0,0-0.01,0-0.01,0c-0.47,0-0.92-0.18-1.19-0.48l-6.51-7.29l-3.43,8.48c-0.14,0.36-0.5,0.63-0.96,0.74L290.34,180.59z
				 M300.78,176.91L300.78,176.91L300.78,176.91z"/>
		</g>
	</g>
	<g>
		<g>
			<polygon class="st7" points="349.71,84.08 103.56,134.59 135.95,187.11 349.71,147.94 			"/>
		</g>
		<g>
			<path class="st8" d="M135.95,188.19c-0.52,0-1.01-0.23-1.25-0.61l-32.39-52.52c-0.18-0.29-0.18-0.63-0.01-0.93
				c0.17-0.29,0.51-0.51,0.91-0.59l246.15-50.51c0.42-0.08,0.86-0.01,1.2,0.19c0.34,0.2,0.54,0.52,0.54,0.86v63.86
				c0,0.5-0.44,0.94-1.07,1.06l-213.76,39.16C136.16,188.18,136.05,188.19,135.95,188.19z M105.54,135.31l31.17,50.55l211.61-38.77
				v-61.6L105.54,135.31z"/>
		</g>
	</g>
	<g>
		<path class="st0" d="M163.37,140.79l0.3,1.11c0.88,3.21,0.17,5.42-2.33,6.91l0.02,0.09c3.64,0.46,5.58,2.56,6.48,5.85l0.69,2.54
			c1.32,4.81-1.22,7.94-7.48,8.99l-9.84,1.65l-8.53-31.17l9.44-1.58C158.62,134.09,162.05,135.98,163.37,140.79z M150.17,140.17
			l2.25,8.24l2.45-0.41c2.33-0.39,3.54-1.43,2.85-3.92l-0.47-1.74c-0.61-2.23-1.84-3.04-4.06-2.67L150.17,140.17z M153.64,152.86
			l2.62,9.57l3.58-0.6c2.1-0.35,3.04-1.3,2.4-3.62l-0.74-2.72c-0.79-2.89-2.23-3.58-5.07-3.11L153.64,152.86z"/>
		<path class="st0" d="M175.64,144.98l8.59-1.44l1.22,4.45l-8.59,1.44l2.5,9.13l10.81-1.81l1.22,4.45l-17.07,2.86l-8.53-31.17
			l17.07-2.86l1.22,4.45l-10.81,1.81L175.64,144.98z"/>
		<path class="st0" d="M195.05,127.61c6.09-1.02,10,1.31,11.36,6.29l0.27,0.98l-5.92,0.99l-0.35-1.29
			c-0.61-2.23-1.98-2.88-3.97-2.55c-1.99,0.33-2.9,1.37-2.29,3.6c0.62,2.27,2.34,3.75,7.2,5.87c6.22,2.73,8.58,5.04,9.55,8.6
			c1.37,4.99-1.04,8.37-7.19,9.4c-6.14,1.03-10.11-1.29-11.47-6.27l-0.52-1.91l5.92-0.99l0.61,2.23c0.61,2.23,2.08,2.82,4.07,2.48
			c1.99-0.33,3.02-1.35,2.41-3.57c-0.62-2.27-2.34-3.75-7.2-5.87c-6.22-2.73-8.58-5.04-9.55-8.6
			C186.61,132.01,188.96,128.63,195.05,127.61z"/>
		<path class="st0" d="M206.18,126.12l19.34-3.24l1.22,4.45l-6.54,1.1l7.31,26.72l-6.26,1.05l-7.31-26.72l-6.54,1.1L206.18,126.12z"
			/>
		<path class="st0" d="M257.73,125.53l1.11,4.05c1.37,4.99-0.96,8.22-7.22,9.27l-2.96,0.5l3.2,11.71l-6.26,1.05l-8.53-31.17
			l9.22-1.54C252.55,118.35,256.36,120.55,257.73,125.53z M244.55,124.34l2.89,10.55l2.96-0.5c1.99-0.33,2.88-1.23,2.27-3.45
			l-1.28-4.68c-0.61-2.23-1.89-2.76-3.88-2.42L244.55,124.34z"/>
		<path class="st0" d="M280.14,146.32c-0.56-0.74-0.92-1.2-1.62-3.73l-1.34-4.9c-0.79-2.9-2.34-3.75-5.18-3.28l-2.16,0.36
			l3.47,12.69l-6.26,1.05l-8.53-31.17l9.44-1.58c6.49-1.09,9.92,0.81,11.24,5.62l0.67,2.45c0.88,3.21,0.13,5.47-2.38,6.97l0.02,0.09
			c3.41,0.5,5.07,2.64,5.96,5.89l1.32,4.81c0.41,1.51,0.78,2.62,1.72,3.67L280.14,146.32z M266,120.75l2.62,9.57l2.45-0.41
			c2.33-0.39,3.54-1.43,2.85-3.92l-0.84-3.07c-0.61-2.23-1.84-3.04-4.06-2.67L266,120.75z"/>
		<path class="st0" d="M281.39,113.51l6.26-1.05l8.53,31.17l-6.26,1.05L281.39,113.51z"/>
		<path class="st0" d="M315.7,128.2l1.13,4.14c1.37,4.99-1.04,8.37-7.19,9.4c-6.14,1.03-10.11-1.29-11.47-6.27l-4.44-16.21
			c-1.36-4.99,1.04-8.37,7.19-9.4c6.14-1.03,10.11,1.29,11.47,6.27l0.83,3.03l-5.92,0.99l-0.91-3.34c-0.61-2.23-2.09-2.86-4.08-2.53
			c-1.99,0.33-3.01,1.39-2.4,3.62l4.61,16.83c0.61,2.23,2.08,2.82,4.07,2.48c1.99-0.33,3.02-1.35,2.41-3.57l-1.22-4.45L315.7,128.2z
			"/>
		<path class="st0" d="M324.01,120.1l8.59-1.44l1.22,4.45l-8.59,1.44l2.5,9.13l10.81-1.81l1.22,4.45l-17.07,2.86l-8.53-31.17
			l17.07-2.86l1.22,4.45l-10.81,1.81L324.01,120.1z"/>
	</g>
	<g>
		<path class="st6" d="M208.09,191.6l0.3,1.11c0.88,3.21,0.17,5.42-2.33,6.91l0.02,0.09c3.64,0.46,5.58,2.56,6.48,5.85l0.69,2.54
			c1.32,4.81-1.22,7.94-7.48,8.99l-9.84,1.65l-8.53-31.17l9.44-1.58C203.34,184.9,206.77,186.79,208.09,191.6z M194.89,190.97
			l2.25,8.24l2.45-0.41c2.33-0.39,3.54-1.43,2.85-3.92l-0.47-1.74c-0.61-2.23-1.84-3.04-4.06-2.67L194.89,190.97z M198.36,203.66
			l2.62,9.57l3.58-0.6c2.11-0.35,3.04-1.3,2.4-3.62l-0.74-2.72c-0.79-2.89-2.23-3.58-5.07-3.11L198.36,203.66z"/>
		<path class="st6" d="M220.36,195.79l8.59-1.44l1.22,4.45l-8.59,1.44l2.5,9.13l10.81-1.81l1.22,4.45l-17.07,2.86l-8.53-31.17
			l17.07-2.86l1.22,4.45l-10.81,1.81L220.36,195.79z"/>
		<path class="st6" d="M239.77,178.42c6.09-1.02,10,1.31,11.36,6.29l0.27,0.98l-5.92,0.99l-0.35-1.29
			c-0.61-2.23-1.98-2.88-3.97-2.55c-1.99,0.33-2.9,1.37-2.29,3.6c0.62,2.27,2.34,3.75,7.2,5.87c6.22,2.73,8.58,5.04,9.55,8.6
			c1.37,4.99-1.04,8.37-7.19,9.4c-6.14,1.03-10.11-1.29-11.47-6.27l-0.52-1.91l5.92-0.99l0.61,2.23c0.61,2.23,2.08,2.82,4.07,2.48
			c1.99-0.33,3.02-1.35,2.41-3.57c-0.62-2.27-2.34-3.75-7.2-5.87c-6.22-2.73-8.58-5.04-9.55-8.6
			C231.33,182.81,233.68,179.44,239.77,178.42z"/>
		<path class="st6" d="M250.9,176.93l19.34-3.24l1.22,4.45l-6.54,1.1l7.31,26.72l-6.26,1.05l-7.31-26.72l-6.54,1.1L250.9,176.93z"/>
	</g>
	<g>
		<path class="st6" d="M238.54,216.67l9.9-1.66c6.26-1.05,10.07,1.15,11.44,6.14l4.31,15.76c1.36,4.99-0.96,8.22-7.22,9.27
			l-9.9,1.66L238.54,216.67z M246.02,220.08l6.09,22.26l3.53-0.59c1.99-0.33,2.97-1.34,2.36-3.56l-4.44-16.21
			c-0.61-2.23-2.02-2.83-4.01-2.49L246.02,220.08z"/>
		<path class="st6" d="M271.61,224.87l8.59-1.44l1.22,4.45l-8.59,1.44l2.5,9.13l10.81-1.81l1.22,4.45l-17.07,2.86l-8.53-31.17
			l17.07-2.86l1.22,4.45l-10.81,1.81L271.61,224.87z"/>
		<path class="st6" d="M311.47,237.05l-6.32,1.06l-2.63-5.47l-7.68,1.29l0.47,5.84l-5.75,0.96l-2.16-32.24l9.16-1.54L311.47,237.05z
			 M294.49,229.56l6.03-1.01l-7.27-15.27l-0.11,0.02L294.49,229.56z"/>
		<path class="st6" d="M305.85,205.39l6.26-1.05l7.31,26.72l10.3-1.73l1.22,4.45l-16.56,2.78L305.85,205.39z"/>
	</g>
</g>
</svg>
