<?xml version="1.0" encoding="utf-8"?>
<!-- Generator: Adobe Illustrator 23.0.3, SVG Export Plug-In . SVG Version: 6.00 Build 0)  -->
<svg version="1.1" id="Layer_1" xmlns="http://www.w3.org/2000/svg" xmlns:xlink="http://www.w3.org/1999/xlink" x="0px" y="0px"
	 viewBox="0 0 595.28 841.89" style="enable-background:new 0 0 595.28 841.89;" xml:space="preserve">
<style type="text/css">
	.st0{fill:#6EC069;}
	.st1{fill:#468447;}
	.st2{fill:#E53E2A;}
	.st3{fill:#A52A22;}
	.st4{fill:#FFFFFF;}
	.st5{fill:#5FBAE9;}
	.st6{fill:#1180BB;}
</style>
<g>
	<g>
		<g>
			<polygon class="st0" points="299.52,129.75 341.33,165.19 304.69,173.77 			"/>
		</g>
		<g>
			<path class="st1" d="M304.69,174.85c-0.27,0-0.54-0.06-0.77-0.19c-0.34-0.18-0.56-0.48-0.59-0.8l-5.17-44.01
				c-0.05-0.46,0.27-0.9,0.8-1.09c0.53-0.19,1.16-0.09,1.56,0.25l41.81,35.44c0.33,0.28,0.45,0.67,0.32,1.03
				c-0.12,0.36-0.48,0.65-0.93,0.76l-36.64,8.57C304.95,174.84,304.82,174.85,304.69,174.85z M301.25,132.81l4.64,39.54l32.92-7.7
				L301.25,132.81z"/>
		</g>
	</g>
	<g>
		<g>
			<polygon class="st2" points="139.24,152.26 117.83,300.65 224.82,361.46 320.05,304.5 299.52,129.75 			"/>
		</g>
		<g>
			<path class="st3" d="M224.82,362.55c-0.28,0-0.56-0.07-0.79-0.2l-106.99-60.81c-0.4-0.23-0.62-0.62-0.56-1.01l21.41-148.38
				c0.07-0.48,0.52-0.86,1.12-0.95l160.28-22.51c0.38-0.05,0.76,0.02,1.07,0.21c0.3,0.18,0.5,0.46,0.53,0.76l20.53,174.75
				c0.04,0.38-0.16,0.74-0.54,0.97l-95.23,56.97C225.4,362.48,225.11,362.55,224.82,362.55z M119.28,300.14l105.52,59.98
				l93.82-56.12L298.3,131.03l-157.82,22.17L119.28,300.14z"/>
		</g>
	</g>
	<g>
		<path class="st4" d="M167.26,183.65l10.66-1.3l1.15,5.97l-10.66,1.3l3.34,17.26l-8.26,1.01l-8.08-41.82l21.85-2.67l1.16,5.97
			l-13.59,1.66L167.26,183.65z"/>
		<path class="st4" d="M206.59,202.63c-0.66-1.02-1.09-1.64-1.74-5.05l-1.27-6.57c-0.75-3.88-2.68-5.11-6.43-4.66l-2.85,0.35
			l3.29,17.03l-8.26,1.01l-8.08-41.82l12.46-1.52c8.56-1.05,12.85,1.67,14.1,8.12l0.63,3.29c0.83,4.3-0.36,7.26-3.78,9.08l0.02,0.12
			c4.4,0.87,6.35,3.81,7.19,8.17l1.25,6.45c0.39,2.03,0.76,3.52,1.88,4.97L206.59,202.63z M190.65,167.89l2.48,12.84l3.23-0.39
			c3.08-0.38,4.75-1.68,4.1-5.03l-0.8-4.12c-0.58-2.99-2.11-4.15-5.04-3.79L190.65,167.89z"/>
		<path class="st4" d="M223.08,175.85l11.34-1.39l1.15,5.97l-11.34,1.39l2.37,12.25l14.27-1.75l1.15,5.97l-22.53,2.76l-8.08-41.82
			l22.53-2.76l1.15,5.97l-14.27,1.75L223.08,175.85z"/>
		<path class="st4" d="M250.71,172.47l11.34-1.39l1.15,5.97l-11.34,1.39l2.37,12.25l14.27-1.75l1.15,5.97l-22.53,2.76l-8.08-41.82
			l22.53-2.76l1.15,5.97l-14.27,1.75L250.71,172.47z"/>
	</g>
	<g>
		<path class="st4" d="M176.67,306.21c4-0.42,4.64-2.05,5.15-3.89l3.48-0.36l4.33,26.22l-5.18,0.54l-3.3-20l-4,0.42L176.67,306.21z"
			/>
		<path class="st4" d="M199.24,306.9c-0.69-4.19,1.69-6.88,6.77-7.41c5.08-0.53,8.26,1.57,8.95,5.77l2.25,13.63
			c0.69,4.19-1.69,6.88-6.77,7.41c-5.08,0.53-8.26-1.57-8.95-5.77L199.24,306.9z M206.72,320.25c0.31,1.87,1.46,2.48,3.11,2.3
			c1.65-0.17,2.57-0.99,2.26-2.87l-2.34-14.16c-0.31-1.87-1.46-2.48-3.11-2.3c-1.65,0.17-2.57,0.99-2.26,2.86L206.72,320.25z"/>
		<path class="st4" d="M224.94,304.21c-0.69-4.19,1.69-6.88,6.77-7.41c5.08-0.53,8.26,1.58,8.95,5.77l2.25,13.63
			c0.69,4.19-1.69,6.88-6.77,7.41c-5.08,0.53-8.26-1.57-8.95-5.77L224.94,304.21z M232.42,317.57c0.31,1.87,1.46,2.48,3.11,2.3
			c1.65-0.17,2.57-0.99,2.26-2.86l-2.34-14.16c-0.31-1.87-1.46-2.48-3.11-2.3c-1.65,0.17-2.57,0.99-2.26,2.87L232.42,317.57z"/>
		<path class="st4" d="M250.41,299.23c-0.45-2.7,1.05-4.38,4.3-4.72c3.25-0.34,5.24,0.98,5.68,3.67l1.42,8.61
			c0.45,2.7-1.05,4.38-4.3,4.72c-3.25,0.34-5.24-0.98-5.68-3.67L250.41,299.23z M255.16,307.68c0.19,1.16,0.88,1.58,1.97,1.47
			c1.04-0.11,1.61-0.66,1.42-1.82l-1.48-8.99c-0.19-1.16-0.93-1.58-1.97-1.47c-1.08,0.11-1.61,0.66-1.42,1.83L255.16,307.68z
			 M267.73,293.34l3.06-0.32l-8.66,27.57l-3.06,0.32L267.73,293.34z M268.33,307.11c-0.45-2.7,1.05-4.38,4.3-4.72
			c3.25-0.34,5.24,0.98,5.68,3.67l1.42,8.61c0.45,2.7-1.05,4.38-4.3,4.72c-3.25,0.34-5.24-0.98-5.68-3.67L268.33,307.11z
			 M273.08,315.56c0.19,1.16,0.88,1.58,1.97,1.47c1.04-0.11,1.61-0.66,1.42-1.82l-1.48-8.99c-0.19-1.16-0.93-1.58-1.97-1.47
			c-1.08,0.11-1.61,0.66-1.42,1.83L273.08,315.56z"/>
	</g>
	<g>
		<g>
			<polygon class="st2" points="297.79,351.46 224.82,361.46 286.58,324.52 			"/>
		</g>
		<g>
			<path class="st3" d="M224.82,362.55c-0.54,0-1.04-0.25-1.25-0.66c-0.25-0.46-0.07-1,0.43-1.3l61.76-36.94
				c0.35-0.21,0.81-0.27,1.23-0.17c0.42,0.1,0.75,0.36,0.89,0.7l11.22,26.94c0.13,0.3,0.08,0.63-0.12,0.9
				c-0.2,0.27-0.55,0.46-0.94,0.51l-72.98,10.01C224.97,362.55,224.89,362.55,224.82,362.55z M285.88,326.3l-55.71,33.33L296,350.6
				L285.88,326.3z"/>
		</g>
	</g>
	<g>
		<g>
			<polygon class="st5" points="95.99,225.39 320.43,196.04 330.2,278.69 105.56,302.68 			"/>
		</g>
		<g>
			<path class="st6" d="M105.56,303.76c-0.31,0-0.61-0.08-0.85-0.23c-0.29-0.18-0.48-0.45-0.51-0.75l-9.57-77.29
				c-0.07-0.57,0.43-1.09,1.14-1.18l224.44-29.34c0.38-0.05,0.76,0.03,1.06,0.21c0.3,0.18,0.49,0.46,0.53,0.76l9.78,82.65
				c0.07,0.58-0.45,1.1-1.18,1.18l-224.65,23.98C105.68,303.76,105.62,303.76,105.56,303.76z M97.48,226.29l9.3,75.15l221.94-23.69
				l-9.52-80.45L97.48,226.29z"/>
		</g>
	</g>
	<g>
		<path class="st4" d="M104.97,241.08l13.06-1.6c8.26-1.01,13.02,2.14,14.31,8.83l4.09,21.15c1.29,6.69-2.06,10.83-10.32,11.84
			l-13.06,1.6L104.97,241.08z M114.39,246.04l5.77,29.87l4.65-0.57c2.63-0.32,4-1.59,3.42-4.58l-4.2-21.75
			c-0.58-2.99-2.36-3.87-4.99-3.55L114.39,246.04z"/>
		<path class="st4" d="M147.27,253.95l11.34-1.39l1.15,5.97l-11.34,1.39l2.37,12.25l14.27-1.75l1.15,5.97l-22.53,2.76l-8.08-41.82
			l22.53-2.76l1.15,5.97l-14.27,1.75L147.27,253.95z"/>
		<path class="st4" d="M163.24,233.95l8.26-1.01l6.93,35.84l13.59-1.66l1.15,5.97l-21.85,2.67L163.24,233.95z"/>
		<path class="st4" d="M188.69,230.84l8.26-1.01l8.08,41.82l-8.26,1.01L188.69,230.84z"/>
		<path class="st4" d="M221.93,261.69l0.15-0.02l-0.36-34.87l7.58-0.93l-0.03,42.81l-12.31,1.51l-16.19-40.83l8.34-1.02
			L221.93,261.69z"/>
		<path class="st4" d="M244.8,242.02l11.34-1.39l1.15,5.97l-11.34,1.39l2.37,12.25l14.27-1.75l1.15,5.97l-22.53,2.76l-8.08-41.82
			l22.53-2.76l1.15,5.97l-14.27,1.75L244.8,242.02z"/>
		<path class="st4" d="M286.12,261.73c-0.66-1.02-1.09-1.64-1.74-5.05l-1.27-6.57c-0.75-3.88-2.68-5.11-6.43-4.66l-2.85,0.35
			l3.29,17.03l-8.26,1.01l-8.08-41.82l12.46-1.53c8.56-1.05,12.85,1.67,14.1,8.12l0.63,3.29c0.83,4.3-0.36,7.26-3.78,9.08l0.02,0.12
			c4.39,0.87,6.35,3.81,7.19,8.17l1.25,6.45c0.39,2.03,0.76,3.51,1.88,4.97L286.12,261.73z M270.18,226.99l2.48,12.84l3.23-0.4
			c3.08-0.38,4.75-1.68,4.1-5.03l-0.8-4.12c-0.58-2.99-2.11-4.15-5.04-3.79L270.18,226.99z"/>
		<path class="st4" d="M303.33,245.43l-15.84-26.68l8.63-1.06l9.91,18.29l0.15-0.02l2.55-19.82l7.88-0.96l-5.03,29.24l2.68,13.86
			l-8.26,1.01L303.33,245.43z"/>
	</g>
</g>
</svg>
