<?xml version="1.0" encoding="utf-8"?>
<!-- Generator: Adobe Illustrator 23.0.3, SVG Export Plug-In . SVG Version: 6.00 Build 0)  -->
<svg version="1.1" id="Layer_1" xmlns="http://www.w3.org/2000/svg" xmlns:xlink="http://www.w3.org/1999/xlink" x="0px" y="0px"
	 viewBox="0 0 595.28 841.89" style="enable-background:new 0 0 595.28 841.89;" xml:space="preserve">
<style type="text/css">
	.st0{fill:#E53E2A;}
	.st1{fill:#A52A22;}
	.st2{fill:#6EC069;}
	.st3{fill:#468447;}
	.st4{fill:#FFFFFF;}
	.st5{fill:#D67E28;}
	.st6{fill:#5FBAE9;}
	.st7{fill:#1180BB;}
	.st8{fill:#FED625;}
</style>
<g>
	<g>
		<g>
			<polygon class="st0" points="78.36,247.47 97.03,232.78 131.57,252.34 			"/>
		</g>
		<g>
			<path class="st1" d="M131.57,253.16c-0.03,0-0.06,0-0.09,0l-53.2-4.88c-0.35-0.03-0.65-0.26-0.76-0.57
				c-0.11-0.31,0-0.65,0.27-0.86l18.66-14.69c0.29-0.23,0.72-0.26,1.05-0.08l34.54,19.56c0.35,0.2,0.51,0.6,0.37,0.95
				C132.29,252.94,131.95,253.16,131.57,253.16z M80.52,246.85l47.31,4.33l-30.71-17.39L80.52,246.85z"/>
		</g>
	</g>
	<g>
		<g>
			<polygon class="st2" points="131.57,252.34 194.25,228.27 45.39,203.54 			"/>
		</g>
		<g>
			<path class="st3" d="M131.57,253.16c-0.16,0-0.33-0.04-0.47-0.12l-86.17-48.81c-0.36-0.21-0.52-0.62-0.36-0.99
				c0.15-0.37,0.57-0.58,0.99-0.51l148.85,24.73c0.39,0.06,0.68,0.35,0.73,0.71c0.04,0.36-0.18,0.7-0.54,0.84l-62.68,24.07
				C131.8,253.14,131.68,253.16,131.57,253.16z M49.86,205.11l81.79,46.32l59.49-22.85L49.86,205.11z"/>
		</g>
	</g>
	<g>
		<g>
			<polygon class="st4" points="123.51,218.61 124.64,225.32 131.32,228.27 124.7,231.33 123.7,238.06 118.48,233.24 111.19,234.45 
				114.58,228.41 111.07,222.43 118.39,223.52 			"/>
		</g>
		<g>
			<path class="st5" d="M123.7,238.47c-0.12,0-0.23-0.04-0.32-0.12l-5.06-4.67l-7.06,1.17c-0.17,0.03-0.34-0.03-0.44-0.16
				c-0.1-0.12-0.12-0.29-0.04-0.43l3.28-5.85l-3.4-5.8c-0.08-0.14-0.07-0.3,0.03-0.43s0.27-0.19,0.43-0.17l7.09,1.05l4.97-4.75
				c0.12-0.11,0.29-0.15,0.45-0.11c0.16,0.05,0.28,0.17,0.31,0.33l1.09,6.5l6.46,2.86c0.15,0.07,0.25,0.21,0.25,0.36
				s-0.09,0.3-0.24,0.37l-6.41,2.96l-0.97,6.52c-0.02,0.15-0.14,0.28-0.3,0.33C123.79,238.46,123.75,238.47,123.7,238.47z
				 M118.48,232.83c0.12,0,0.23,0.04,0.32,0.12l4.59,4.24l0.88-5.91c0.02-0.13,0.11-0.25,0.24-0.31l5.81-2.69l-5.86-2.59
				c-0.13-0.06-0.22-0.17-0.25-0.3l-0.99-5.9l-4.5,4.31c-0.1,0.1-0.25,0.14-0.39,0.12l-6.43-0.96l3.08,5.26
				c0.07,0.12,0.07,0.26,0,0.38l-2.98,5.3l6.41-1.06C118.43,232.84,118.45,232.83,118.48,232.83z"/>
		</g>
	</g>
	<g>
		<g>
			<g>
				<polygon class="st4" points="101.81,215.46 102.71,220.31 107.59,222.39 102.82,224.67 102.18,229.56 98.33,226.12 
					93.06,227.06 95.45,222.65 92.84,218.35 98.15,219.07 				"/>
			</g>
			<g>
				<path class="st5" d="M102.18,229.97c-0.11,0-0.23-0.04-0.31-0.12l-3.67-3.3l-5.05,0.91c-0.17,0.03-0.34-0.03-0.44-0.15
					c-0.1-0.12-0.12-0.29-0.04-0.43l2.28-4.22l-2.5-4.12c-0.08-0.14-0.07-0.3,0.02-0.43c0.1-0.13,0.26-0.2,0.43-0.17l5.09,0.69
					l3.5-3.45c0.12-0.11,0.29-0.16,0.45-0.11c0.16,0.04,0.28,0.17,0.31,0.32l0.86,4.64l4.66,1.98c0.15,0.07,0.25,0.2,0.26,0.36
					c0,0.16-0.09,0.3-0.24,0.37l-4.56,2.18l-0.62,4.68c-0.02,0.15-0.13,0.28-0.29,0.34C102.27,229.96,102.23,229.97,102.18,229.97z
					 M98.33,225.71c0.12,0,0.23,0.04,0.31,0.12l3.2,2.87l0.54-4.07c0.02-0.13,0.11-0.25,0.24-0.31l3.96-1.9l-4.06-1.73
					c-0.13-0.06-0.23-0.17-0.25-0.3l-0.75-4.04l-3.05,3c-0.1,0.1-0.24,0.15-0.39,0.13l-4.43-0.6l2.17,3.58
					c0.07,0.12,0.07,0.26,0.01,0.38l-1.99,3.67l4.39-0.79C98.28,225.71,98.31,225.71,98.33,225.71z"/>
			</g>
		</g>
		<g>
			<g>
				<polygon class="st4" points="142.44,226.59 143.34,231.45 148.22,233.53 143.45,235.81 142.81,240.7 138.96,237.25 
					133.69,238.2 136.08,233.79 133.47,229.48 138.78,230.2 				"/>
			</g>
			<g>
				<path class="st5" d="M142.81,241.11c-0.11,0-0.23-0.04-0.31-0.12l-3.67-3.3l-5.05,0.91c-0.17,0.03-0.34-0.03-0.44-0.15
					c-0.1-0.12-0.12-0.29-0.04-0.43l2.28-4.22l-2.5-4.12c-0.08-0.14-0.07-0.3,0.02-0.43c0.1-0.13,0.26-0.19,0.43-0.17l5.09,0.69
					l3.5-3.45c0.12-0.11,0.29-0.16,0.45-0.11c0.16,0.04,0.28,0.17,0.31,0.32l0.86,4.64l4.66,1.98c0.15,0.07,0.25,0.2,0.26,0.36
					c0,0.16-0.09,0.3-0.24,0.37l-4.56,2.18l-0.62,4.68c-0.02,0.15-0.13,0.28-0.29,0.34C142.91,241.1,142.86,241.11,142.81,241.11z
					 M138.96,236.85c0.12,0,0.23,0.04,0.31,0.12l3.2,2.87l0.54-4.07c0.02-0.13,0.11-0.25,0.24-0.31l3.96-1.9l-4.06-1.73
					c-0.13-0.06-0.23-0.17-0.25-0.3l-0.75-4.04l-3.05,3c-0.1,0.1-0.24,0.15-0.39,0.13l-4.43-0.6l2.17,3.58
					c0.07,0.12,0.07,0.26,0.01,0.38l-1.99,3.67l4.39-0.79C138.91,236.85,138.94,236.85,138.96,236.85z"/>
			</g>
		</g>
	</g>
	<g>
		<g>
			<polygon class="st0" points="45.39,113.09 45.39,203.54 194.25,228.27 182.39,94.32 			"/>
		</g>
		<g>
			<path class="st1" d="M194.25,229.09c-0.05,0-0.11,0-0.16-0.01L45.23,204.34c-0.42-0.07-0.73-0.41-0.73-0.8v-90.45
				c0-0.4,0.32-0.75,0.76-0.81l137-18.77c0.24-0.03,0.49,0.03,0.68,0.17c0.19,0.14,0.31,0.35,0.33,0.57l11.85,133.95
				c0.02,0.25-0.08,0.5-0.29,0.67C194.68,229.01,194.47,229.09,194.25,229.09z M46.28,202.86l146.98,24.42L181.58,95.26
				l-135.3,18.54V202.86z"/>
		</g>
	</g>
	<g>
		<path class="st4" d="M113.66,193.79c2.61,0.22,3.31-0.89,3.97-2.17l2.28,0.19l-1.97,19.73l-3.38-0.28l1.5-15.05l-2.61-0.22
			L113.66,193.79z"/>
		<path class="st4" d="M127.85,197.25c0.32-3.16,2.31-4.81,5.63-4.53c3.32,0.28,4.96,2.23,4.64,5.39l-1.02,10.26
			c-0.32,3.16-2.31,4.81-5.63,4.53c-3.32-0.28-4.96-2.23-4.64-5.39L127.85,197.25z M130.19,207.99c-0.14,1.41,0.48,2,1.56,2.09
			c1.08,0.09,1.81-0.39,1.95-1.8l1.06-10.65c0.14-1.41-0.48-2-1.56-2.09c-1.08-0.09-1.81,0.39-1.95,1.8L130.19,207.99z"/>
		<path class="st4" d="M144.64,198.66c0.32-3.16,2.31-4.81,5.63-4.53c3.32,0.28,4.96,2.23,4.64,5.39l-1.02,10.26
			c-0.32,3.16-2.31,4.81-5.63,4.53c-3.32-0.28-4.96-2.23-4.64-5.39L144.64,198.66z M146.98,209.4c-0.14,1.41,0.48,2,1.56,2.09
			c1.08,0.09,1.81-0.39,1.95-1.8l1.06-10.65c0.14-1.41-0.48-2-1.56-2.09c-1.08-0.09-1.81,0.39-1.95,1.8L146.98,209.4z"/>
		<path class="st4" d="M161.7,198.36c0.2-2.03,1.45-3.06,3.57-2.88c2.12,0.18,3.15,1.4,2.94,3.43l-0.65,6.48
			c-0.2,2.03-1.45,3.06-3.58,2.88c-2.12-0.18-3.15-1.4-2.94-3.43L161.7,198.36z M163.19,205.16c-0.09,0.87,0.28,1.27,0.98,1.33
			c0.68,0.06,1.14-0.27,1.23-1.15l0.68-6.76c0.09-0.87-0.31-1.28-0.98-1.33c-0.71-0.06-1.14,0.27-1.23,1.15L163.19,205.16z
			 M173.75,196.33l2,0.17l-10.46,19.01l-2-0.17L173.75,196.33z M171.65,206.47c0.2-2.03,1.45-3.06,3.57-2.88
			c2.12,0.18,3.15,1.4,2.94,3.43l-0.65,6.48c-0.2,2.03-1.45,3.06-3.57,2.88c-2.12-0.18-3.15-1.4-2.94-3.43L171.65,206.47z
			 M173.14,213.27c-0.09,0.87,0.28,1.27,0.98,1.33c0.68,0.06,1.14-0.27,1.23-1.15l0.68-6.76c0.09-0.87-0.31-1.28-0.98-1.33
			c-0.71-0.06-1.14,0.27-1.23,1.15L173.14,213.27z"/>
	</g>
	<g>
		<path class="st4" d="M71.5,122.69l0.52,3.46c0.64,4.25-1.25,6.85-5.81,7.43l-2.16,0.27l1.51,9.99L61,144.41l-4.01-26.59l6.72-0.85
			C68.27,116.4,70.86,118.43,71.5,122.69z M62.13,121.05l1.36,9l2.16-0.27c1.45-0.18,2.15-0.89,1.86-2.79L66.9,123
			c-0.29-1.9-1.17-2.41-2.62-2.22L62.13,121.05z"/>
		<path class="st4" d="M86.17,141.23c-0.35-0.65-0.58-1.05-0.91-3.21l-0.63-4.18c-0.37-2.47-1.42-3.27-3.49-3l-1.58,0.2l1.63,10.83
			l-4.56,0.58l-4.01-26.59l6.88-0.87c4.73-0.6,7.06,1.16,7.68,5.26l0.32,2.09c0.41,2.73-0.28,4.6-2.18,5.73l0.01,0.08
			c2.41,0.59,3.46,2.47,3.87,5.24l0.62,4.1c0.19,1.29,0.38,2.24,0.98,3.17L86.17,141.23z M77.76,119.07l1.23,8.17l1.78-0.23
			c1.7-0.22,2.63-1.03,2.31-3.16l-0.4-2.62c-0.29-1.9-1.12-2.65-2.73-2.44L77.76,119.07z"/>
		<path class="st4" d="M95.54,124.36l6.26-0.79l0.57,3.8l-6.26,0.79l1.17,7.79l7.88-1l0.57,3.8l-12.44,1.57l-4.01-26.59l12.44-1.57
			l0.57,3.8l-7.88,1L95.54,124.36z"/>
		<path class="st4" d="M117.01,129.47l0.08-0.01l0.22-19.27l6.34-0.8l4.01,26.59l-4.31,0.55l-2.87-19.07l-0.08,0.01l-0.19,19.46
			l-4.31,0.55l-6.15-18.38l-0.08,0.01l2.83,18.8l-3.98,0.5l-4.01-26.59l6.34-0.8L117.01,129.47z"/>
		<path class="st4" d="M126.97,108.97l4.56-0.58l4.01,26.59l-4.56,0.58L126.97,108.97z"/>
		<path class="st4" d="M139.2,107.42l3.09,20.51c0.29,1.9,1.3,2.47,2.75,2.28c1.45-0.18,2.26-0.98,1.97-2.88l-3.09-20.51l4.31-0.55
			l3.05,20.25c0.64,4.25-1.31,6.98-5.79,7.55c-4.48,0.57-7.16-1.57-7.81-5.82L134.64,108L139.2,107.42z"/>
		<path class="st4" d="M163.81,123.54l0.08-0.01l0.22-19.27l6.34-0.8l4.01,26.59l-4.31,0.55l-2.87-19.07l-0.08,0.01L167,131
			l-4.31,0.55l-6.15-18.38l-0.08,0.01l2.83,18.8l-3.98,0.5l-4.01-26.59l6.34-0.8L163.81,123.54z"/>
	</g>
	<g>
		<g>
			<polygon class="st6" points="20.45,147.14 45.39,113.09 45.39,145.42 			"/>
		</g>
		<g>
			<path class="st7" d="M20.45,147.96c-0.31,0-0.61-0.15-0.77-0.4c-0.17-0.27-0.16-0.61,0.03-0.86l24.94-34.05
				c0.22-0.3,0.62-0.43,1-0.33c0.37,0.1,0.63,0.42,0.63,0.78v32.33c0,0.43-0.36,0.78-0.82,0.81l-24.94,1.72
				C20.5,147.96,20.48,147.96,20.45,147.96z M44.5,115.77l-22.29,30.44l22.29-1.54V115.77z"/>
		</g>
	</g>
	<g>
		<g>
			<polygon class="st6" points="35.96,158.26 204.72,134.12 204.72,181.65 41.02,196.29 			"/>
		</g>
		<g>
			<path class="st7" d="M41.02,197.11c-0.44,0-0.83-0.3-0.88-0.72l-5.06-38.03c-0.06-0.44,0.27-0.84,0.75-0.9l168.76-24.14
				c0.26-0.04,0.52,0.03,0.72,0.19c0.2,0.15,0.31,0.38,0.31,0.62v47.53c0,0.42-0.35,0.77-0.8,0.81l-163.7,14.64
				C41.08,197.11,41.05,197.11,41.02,197.11z M36.95,158.94l4.85,36.46l162.03-14.49v-45.84L36.95,158.94z"/>
		</g>
	</g>
	<g>
		<path class="st4" d="M63.78,164.07c-0.76-5.02,1.69-8.26,6.98-8.93c5.29-0.67,8.61,1.83,9.37,6.86l2.47,16.33
			c0.26,1.75,0.15,3.27-0.36,4.53c0.33,0.55,0.74,0.59,1.62,0.48l0.49-0.06l0.66,4.4l-0.73,0.09c-2.4,0.3-4.04-0.31-4.98-1.56
			c-1.02,0.5-2.26,0.88-3.68,1.06c-5.29,0.67-8.61-1.83-9.37-6.86L63.78,164.07z M71.68,180.03c0.34,2.24,1.54,2.96,3.26,2.74
			c1.71-0.22,2.66-1.21,2.32-3.45l-2.56-16.95c-0.34-2.24-1.54-2.96-3.26-2.74c-1.71,0.22-2.66,1.21-2.32,3.45L71.68,180.03z"/>
		<path class="st4" d="M87.6,153.37l3.66,24.22c0.34,2.24,1.54,2.91,3.25,2.7c1.71-0.22,2.67-1.16,2.33-3.4l-3.66-24.22l5.09-0.65
			l3.62,23.9c0.76,5.02-1.55,8.24-6.83,8.91c-5.29,0.67-8.46-1.85-9.22-6.87l-3.62-23.9L87.6,153.37z"/>
		<path class="st4" d="M124.11,180.73l-5.43,0.69l-1.79-5.58l-6.61,0.84l-0.07,5.81l-4.94,0.63l0.73-32.09l7.88-1L124.11,180.73z
			 M110.32,172.33l5.19-0.66l-4.95-15.55l-0.1,0.01L110.32,172.33z"/>
		<path class="st4" d="M121.86,149.02l5.38-0.68l4.07,26.91l8.86-1.13l0.68,4.48l-14.24,1.81L121.86,149.02z"/>
		<path class="st4" d="M138.45,146.91l5.38-0.68l4.75,31.39l-5.38,0.68L138.45,146.91z"/>
		<path class="st4" d="M146.18,145.93l16.64-2.11l0.68,4.48l-5.63,0.71l4.07,26.91l-5.38,0.68l-4.07-26.91l-5.63,0.71L146.18,145.93
			z"/>
		<path class="st4" d="M173.39,163.87l-9.98-20.13l5.63-0.71l6.23,13.79l0.1-0.01l1.9-14.82l5.14-0.65l-3.63,21.85l1.57,10.4
			l-5.38,0.68L173.39,163.87z"/>
	</g>
</g>
<g>
	<g>
		<g>
			<polygon class="st0" points="293.85,248.92 257.88,207.91 294.99,221.78 			"/>
		</g>
		<g>
			<path class="st1" d="M293.85,249.57c-0.27,0-0.53-0.1-0.69-0.28l-35.97-41.01c-0.21-0.24-0.19-0.57,0.05-0.8
				c0.25-0.22,0.65-0.29,1-0.17l37.1,13.87c0.3,0.11,0.49,0.35,0.48,0.61l-1.13,27.14c-0.01,0.28-0.25,0.53-0.6,0.61
				C294.01,249.56,293.93,249.57,293.85,249.57z M260.34,209.56l32.76,37.35l1.03-24.72L260.34,209.56z"/>
		</g>
	</g>
	<g>
		<g>
			<polygon class="st2" points="310.27,227.5 257.88,207.91 284.08,193.85 			"/>
		</g>
		<g>
			<path class="st3" d="M310.27,228.15c-0.12,0-0.24-0.02-0.36-0.06l-52.39-19.58c-0.27-0.1-0.45-0.31-0.47-0.54
				c-0.02-0.23,0.11-0.46,0.36-0.59l26.19-14.07c0.19-0.1,0.42-0.14,0.65-0.1c0.22,0.04,0.42,0.15,0.54,0.3l26.2,33.65
				c0.19,0.25,0.15,0.56-0.09,0.78C310.73,228.08,310.5,228.15,310.27,228.15z M259.55,207.81l48.55,18.15l-24.27-31.18
				L259.55,207.81z"/>
		</g>
	</g>
	<g>
		<g>
			<polygon class="st0" points="335.3,97.75 335.3,112.9 246.94,108.76 			"/>
		</g>
		<g>
			<path class="st1" d="M335.3,113.55c-0.02,0-0.03,0-0.05,0l-88.36-4.13c-0.43-0.02-0.76-0.29-0.79-0.62
				c-0.02-0.33,0.28-0.63,0.7-0.68l88.36-11.02c0.24-0.03,0.49,0.02,0.67,0.15c0.19,0.12,0.29,0.31,0.29,0.5v15.15
				c0,0.18-0.1,0.35-0.26,0.48C335.71,113.49,335.51,113.55,335.3,113.55z M254.63,108.47l79.83,3.73V98.51L254.63,108.47z"/>
		</g>
	</g>
	<g>
		<g>
			<polygon class="st2" points="246.94,108.76 261.62,131.85 382.21,115.09 			"/>
		</g>
		<g>
			<path class="st3" d="M261.61,132.5c-0.31,0-0.61-0.14-0.75-0.36l-14.68-23.08c-0.13-0.21-0.11-0.46,0.05-0.65
				c0.16-0.19,0.45-0.31,0.75-0.29l135.28,6.33c0.42,0.02,0.76,0.28,0.78,0.62c0.02,0.33-0.27,0.62-0.69,0.68l-120.6,16.75
				C261.71,132.5,261.66,132.5,261.61,132.5z M248.33,109.48l13.76,21.63l113.02-15.7L248.33,109.48z"/>
		</g>
	</g>
	<g>
		<g>
			<polygon class="st6" points="382.21,115.09 238.34,135.08 310.27,227.5 382.21,205.99 			"/>
		</g>
		<g>
			<path class="st7" d="M310.27,228.15c-0.28,0-0.56-0.11-0.71-0.31l-71.94-92.42c-0.14-0.18-0.16-0.41-0.05-0.61
				c0.11-0.2,0.34-0.34,0.62-0.37l143.88-19.99c0.24-0.03,0.49,0.02,0.68,0.14c0.19,0.12,0.3,0.31,0.3,0.5v90.9
				c0,0.27-0.21,0.51-0.54,0.61l-71.94,21.51C310.47,228.14,310.37,228.15,310.27,228.15z M239.69,135.56l70.94,91.13l70.75-21.15
				v-89.67L239.69,135.56z"/>
		</g>
	</g>
	<g>
		<g>
			<polygon class="st4" points="359.98,164.68 364.92,170.22 373.55,170.17 368.35,175.56 371.08,181.96 362.92,179.76 
				355.98,183.77 356.13,177.02 349.12,173.09 357.37,171.12 			"/>
		</g>
		<g>
			<path class="st7" d="M355.98,184.46c-0.14,0-0.27-0.03-0.4-0.08c-0.3-0.12-0.48-0.36-0.47-0.62l0.15-6.39l-6.64-3.72
				c-0.27-0.15-0.41-0.41-0.35-0.67c0.05-0.26,0.29-0.47,0.61-0.54l7.81-1.86l2.47-6.1c0.1-0.25,0.37-0.43,0.7-0.47
				c0.33-0.04,0.66,0.07,0.85,0.28l4.68,5.24l8.17-0.05c0,0,0,0,0.01,0c0.33,0,0.63,0.15,0.78,0.38c0.15,0.23,0.12,0.51-0.08,0.72
				l-4.92,5.1l2.58,6.07c0.11,0.25,0.02,0.52-0.21,0.7c-0.24,0.18-0.59,0.25-0.9,0.16l-7.72-2.09l-6.57,3.8
				C356.34,184.41,356.16,184.46,355.98,184.46z M351.07,173.34l5.58,3.12c0.23,0.13,0.37,0.34,0.37,0.57l-0.12,5.37l5.52-3.19
				c0.23-0.13,0.53-0.17,0.8-0.1l6.48,1.75l-2.17-5.09c-0.09-0.21-0.04-0.45,0.13-0.63l4.13-4.28l-6.86,0.04c0,0,0,0-0.01,0
				c-0.29,0-0.55-0.11-0.72-0.29l-3.93-4.4l-2.07,5.12c-0.09,0.21-0.3,0.38-0.58,0.45L351.07,173.34z M357.37,171.12L357.37,171.12
				L357.37,171.12z"/>
		</g>
	</g>
	<g>
		<g>
			<polygon class="st8" points="386.9,115.09 238.34,145.58 257.88,177.27 386.9,153.64 			"/>
		</g>
		<g>
			<path class="st5" d="M257.88,177.93c-0.32,0-0.61-0.14-0.75-0.37l-19.55-31.7c-0.11-0.18-0.11-0.38-0.01-0.56
				c0.1-0.18,0.31-0.31,0.55-0.36l148.57-30.48c0.25-0.05,0.52-0.01,0.72,0.12c0.21,0.12,0.33,0.32,0.33,0.52v38.54
				c0,0.3-0.27,0.57-0.65,0.64l-129.02,23.64C258.01,177.92,257.95,177.93,257.88,177.93z M239.53,146.01l18.82,30.51l127.72-23.4
				v-37.18L239.53,146.01z"/>
		</g>
	</g>
	<g>
		<path class="st0" d="M274.43,149.32l0.18,0.67c0.53,1.94,0.1,3.27-1.41,4.17l0.01,0.05c2.2,0.28,3.37,1.54,3.91,3.53l0.42,1.53
			c0.79,2.9-0.74,4.79-4.51,5.42l-5.94,1l-5.15-18.81l5.7-0.96C271.57,145.27,273.64,146.42,274.43,149.32z M266.46,148.94
			l1.36,4.97l1.48-0.25c1.41-0.24,2.13-0.86,1.72-2.37l-0.29-1.05c-0.37-1.34-1.11-1.84-2.45-1.61L266.46,148.94z M268.56,156.6
			l1.58,5.78l2.16-0.36c1.27-0.21,1.83-0.78,1.45-2.18l-0.45-1.64c-0.48-1.75-1.35-2.16-3.06-1.88L268.56,156.6z"/>
		<path class="st0" d="M281.84,151.84l5.18-0.87l0.74,2.69l-5.18,0.87l1.51,5.51l6.52-1.09l0.74,2.69l-10.3,1.73l-5.15-18.81
			l10.3-1.73l0.74,2.69l-6.52,1.09L281.84,151.84z"/>
		<path class="st0" d="M293.55,141.36c3.67-0.62,6.03,0.79,6.86,3.8l0.16,0.59l-3.57,0.6l-0.21-0.78c-0.37-1.34-1.19-1.74-2.4-1.54
			c-1.2,0.2-1.75,0.83-1.38,2.17c0.38,1.37,1.41,2.27,4.35,3.54c3.75,1.65,5.18,3.04,5.77,5.19c0.82,3.01-0.63,5.05-4.34,5.67
			c-3.71,0.62-6.1-0.78-6.93-3.79l-0.32-1.16l3.57-0.6l0.37,1.34c0.37,1.34,1.26,1.7,2.46,1.5c1.2-0.2,1.82-0.81,1.46-2.16
			c-0.37-1.37-1.41-2.27-4.35-3.54c-3.75-1.65-5.18-3.04-5.77-5.19C288.46,144.02,289.88,141.98,293.55,141.36z"/>
		<path class="st0" d="M300.27,140.46l11.68-1.96l0.74,2.69l-3.95,0.66l4.41,16.13l-3.78,0.63l-4.41-16.13l-3.95,0.66L300.27,140.46
			z"/>
		<path class="st0" d="M331.39,140.11l0.67,2.45c0.82,3.01-0.58,4.96-4.36,5.59l-1.79,0.3l1.93,7.07l-3.78,0.63l-5.15-18.81
			l5.56-0.93C328.26,135.77,330.56,137.1,331.39,140.11z M323.43,139.39l1.74,6.37l1.79-0.3c1.2-0.2,1.74-0.74,1.37-2.08l-0.77-2.82
			c-0.37-1.34-1.14-1.66-2.34-1.46L323.43,139.39z"/>
		<path class="st0" d="M344.91,152.66c-0.34-0.45-0.56-0.72-0.98-2.25l-0.81-2.96c-0.48-1.75-1.41-2.27-3.13-1.98l-1.3,0.22
			l2.1,7.66l-3.78,0.63l-5.15-18.81l5.7-0.96c3.91-0.66,5.99,0.49,6.78,3.39l0.4,1.48c0.53,1.94,0.08,3.3-1.44,4.2l0.01,0.05
			c2.06,0.3,3.06,1.6,3.6,3.56l0.79,2.9c0.25,0.91,0.47,1.58,1.04,2.22L344.91,152.66z M336.38,137.22l1.58,5.78l1.48-0.25
			c1.41-0.24,2.13-0.86,1.72-2.37l-0.51-1.85c-0.37-1.34-1.11-1.84-2.45-1.61L336.38,137.22z"/>
		<path class="st0" d="M345.67,132.85l3.78-0.63l5.15,18.81l-3.78,0.63L345.67,132.85z"/>
		<path class="st0" d="M366.37,141.72l0.68,2.5c0.82,3.01-0.63,5.05-4.34,5.67c-3.71,0.62-6.1-0.78-6.93-3.79l-2.68-9.78
			c-0.82-3.01,0.63-5.05,4.34-5.67c3.71-0.62,6.1,0.78,6.93,3.79l0.5,1.83l-3.57,0.6l-0.55-2.02c-0.37-1.34-1.26-1.73-2.46-1.53
			c-1.2,0.2-1.82,0.84-1.45,2.18l2.78,10.16c0.37,1.34,1.26,1.7,2.46,1.5c1.2-0.2,1.82-0.81,1.46-2.16l-0.74-2.69L366.37,141.72z"/>
		<path class="st0" d="M371.39,136.83l5.18-0.87l0.74,2.69l-5.18,0.87l1.51,5.51l6.52-1.09l0.74,2.69l-10.3,1.73l-5.15-18.81
			l10.3-1.73l0.74,2.69l-6.52,1.09L371.39,136.83z"/>
	</g>
	<g>
		<path class="st4" d="M301.43,179.99l0.18,0.67c0.53,1.94,0.1,3.27-1.41,4.17l0.01,0.05c2.2,0.28,3.37,1.54,3.91,3.53l0.42,1.53
			c0.79,2.9-0.74,4.79-4.51,5.42l-5.94,1l-5.15-18.81l5.7-0.96C298.56,175.94,300.63,177.08,301.43,179.99z M293.46,179.61
			l1.36,4.97l1.48-0.25c1.41-0.24,2.13-0.86,1.72-2.37l-0.29-1.05c-0.37-1.34-1.11-1.84-2.45-1.61L293.46,179.61z M295.55,187.27
			l1.58,5.78l2.16-0.36c1.27-0.21,1.83-0.78,1.45-2.18l-0.45-1.64c-0.48-1.75-1.35-2.16-3.06-1.88L295.55,187.27z"/>
		<path class="st4" d="M308.83,182.51l5.19-0.87l0.74,2.69l-5.19,0.87l1.51,5.51l6.52-1.09l0.74,2.69l-10.3,1.73l-5.15-18.81
			l10.3-1.73l0.74,2.69l-6.52,1.09L308.83,182.51z"/>
		<path class="st4" d="M320.55,172.03c3.67-0.62,6.03,0.79,6.86,3.8l0.16,0.59l-3.57,0.6l-0.21-0.78c-0.37-1.34-1.19-1.74-2.4-1.54
			c-1.2,0.2-1.75,0.83-1.38,2.17c0.38,1.37,1.41,2.27,4.35,3.54c3.75,1.65,5.18,3.04,5.77,5.19c0.82,3.01-0.63,5.05-4.34,5.67
			c-3.71,0.62-6.1-0.78-6.93-3.79l-0.32-1.16l3.57-0.6l0.37,1.34c0.37,1.34,1.26,1.7,2.46,1.5c1.2-0.2,1.82-0.81,1.46-2.16
			c-0.37-1.37-1.41-2.27-4.35-3.54c-3.75-1.65-5.18-3.04-5.77-5.19C315.45,174.68,316.87,172.65,320.55,172.03z"/>
		<path class="st4" d="M327.27,171.13l11.68-1.96l0.74,2.69l-3.95,0.66l4.41,16.13l-3.78,0.63l-4.41-16.13l-3.95,0.66L327.27,171.13
			z"/>
	</g>
	<g>
		<path class="st4" d="M319.81,195.12l5.97-1c3.78-0.63,6.08,0.7,6.9,3.71l2.6,9.51c0.82,3.01-0.58,4.96-4.36,5.59l-5.98,1
			L319.81,195.12z M324.32,197.17l3.68,13.44l2.13-0.36c1.2-0.2,1.79-0.81,1.42-2.15l-2.68-9.78c-0.37-1.34-1.22-1.71-2.42-1.51
			L324.32,197.17z"/>
		<path class="st4" d="M339.76,200.06l5.18-0.87l0.74,2.69l-5.18,0.87l1.51,5.51l6.52-1.09l0.74,2.69l-10.3,1.73l-5.15-18.81
			l10.3-1.73l0.74,2.69l-6.52,1.09L339.76,200.06z"/>
		<path class="st4" d="M363.83,207.42l-3.81,0.64l-1.59-3.3l-4.64,0.78l0.28,3.52l-3.47,0.58l-1.3-19.46l5.53-0.93L363.83,207.42z
			 M353.57,202.89l3.64-0.61l-4.39-9.22l-0.07,0.01L353.57,202.89z"/>
		<path class="st4" d="M360.43,188.31l3.78-0.63l4.41,16.13l6.22-1.04l0.74,2.69l-9.99,1.68L360.43,188.31z"/>
	</g>
</g>
<g>
	<g>
		<g>
			<polygon class="st2" points="552.17,98.39 579.21,121.32 555.51,126.86 			"/>
		</g>
		<g>
			<path class="st3" d="M555.51,127.56c-0.17,0-0.35-0.04-0.5-0.12c-0.22-0.12-0.36-0.31-0.38-0.52l-3.34-28.47
				c-0.04-0.3,0.17-0.58,0.52-0.71c0.35-0.12,0.75-0.06,1.01,0.16l27.05,22.93c0.21,0.18,0.29,0.43,0.21,0.67
				c-0.08,0.24-0.31,0.42-0.6,0.49l-23.7,5.54C555.68,127.56,555.6,127.56,555.51,127.56z M553.29,100.37l3,25.58l21.29-4.98
				L553.29,100.37z"/>
		</g>
	</g>
	<g>
		<g>
			<polygon class="st0" points="448.48,112.95 434.64,208.94 503.84,248.28 565.44,211.43 552.17,98.39 			"/>
		</g>
		<g>
			<path class="st1" d="M503.84,248.98c-0.18,0-0.36-0.04-0.51-0.13l-69.21-39.34c-0.26-0.15-0.4-0.4-0.36-0.65l13.85-95.98
				c0.04-0.31,0.34-0.56,0.72-0.61L552.01,97.7c0.24-0.03,0.49,0.01,0.69,0.13c0.2,0.12,0.32,0.3,0.34,0.49l13.28,113.04
				c0.03,0.24-0.1,0.48-0.35,0.63l-61.6,36.85C504.22,248.93,504.03,248.98,503.84,248.98z M435.57,208.61l68.26,38.8l60.69-36.3
				L551.38,99.22l-102.09,14.34L435.57,208.61z"/>
		</g>
	</g>
	<g>
		<path class="st4" d="M466.61,133.26l6.9-0.84l0.75,3.86l-6.9,0.84l2.16,11.17l-5.34,0.65l-5.23-27.05l14.13-1.73l0.75,3.86
			l-8.79,1.08L466.61,133.26z"/>
		<path class="st4" d="M492.05,145.53c-0.43-0.66-0.7-1.06-1.13-3.26l-0.82-4.25c-0.49-2.51-1.73-3.31-4.16-3.01l-1.85,0.23
			l2.13,11.01l-5.34,0.65l-5.23-27.05l8.06-0.99c5.54-0.68,8.31,1.08,9.12,5.25l0.41,2.13c0.54,2.78-0.24,4.7-2.44,5.88l0.01,0.08
			c2.84,0.56,4.11,2.46,4.65,5.29l0.81,4.17c0.25,1.31,0.49,2.27,1.22,3.21L492.05,145.53z M481.74,123.06l1.61,8.31l2.09-0.26
			c1.99-0.24,3.07-1.09,2.65-3.25l-0.52-2.67c-0.37-1.93-1.36-2.68-3.26-2.45L481.74,123.06z"/>
		<path class="st4" d="M502.72,128.21l7.33-0.9l0.75,3.86l-7.33,0.9l1.53,7.92l9.23-1.13l0.75,3.86l-14.57,1.78l-5.23-27.05
			l14.57-1.78l0.75,3.86l-9.23,1.13L502.72,128.21z"/>
		<path class="st4" d="M520.59,126.02l7.33-0.9l0.75,3.86l-7.33,0.9l1.53,7.92l9.23-1.13l0.75,3.86l-14.57,1.78l-5.23-27.05
			l14.57-1.78l0.75,3.86l-9.23,1.13L520.59,126.02z"/>
	</g>
	<g>
		<path class="st4" d="M472.7,212.54c2.59-0.27,3-1.32,3.33-2.52l2.25-0.24l2.8,16.96l-3.35,0.35l-2.14-12.94l-2.59,0.27
			L472.7,212.54z"/>
		<path class="st4" d="M487.3,212.98c-0.45-2.71,1.09-4.45,4.38-4.8c3.29-0.34,5.34,1.02,5.79,3.73l1.46,8.82
			c0.45,2.71-1.09,4.45-4.38,4.8c-3.29,0.34-5.34-1.02-5.79-3.73L487.3,212.98z M492.14,221.62c0.2,1.21,0.95,1.6,2.01,1.49
			c1.07-0.11,1.66-0.64,1.46-1.85l-1.51-9.16c-0.2-1.21-0.95-1.6-2.01-1.49c-1.07,0.11-1.66,0.64-1.46,1.85L492.14,221.62z"/>
		<path class="st4" d="M503.93,211.24c-0.45-2.71,1.09-4.45,4.38-4.8c3.29-0.34,5.34,1.02,5.79,3.73l1.46,8.82
			c0.45,2.71-1.09,4.45-4.38,4.8c-3.29,0.34-5.34-1.02-5.79-3.73L503.93,211.24z M508.76,219.88c0.2,1.21,0.95,1.6,2.01,1.49
			c1.07-0.11,1.66-0.64,1.46-1.85l-1.51-9.16c-0.2-1.21-0.95-1.6-2.01-1.49c-1.07,0.11-1.66,0.64-1.46,1.85L508.76,219.88z"/>
		<path class="st4" d="M520.4,208.02c-0.29-1.74,0.68-2.83,2.78-3.05c2.1-0.22,3.39,0.63,3.68,2.38l0.92,5.57
			c0.29,1.74-0.68,2.83-2.78,3.05c-2.1,0.22-3.39-0.63-3.68-2.38L520.4,208.02z M523.47,213.49c0.12,0.75,0.57,1.02,1.27,0.95
			c0.67-0.07,1.04-0.43,0.92-1.18l-0.96-5.81c-0.12-0.75-0.6-1.02-1.27-0.95c-0.7,0.07-1.04,0.43-0.92,1.18L523.47,213.49z
			 M531.6,204.21l1.98-0.21l-5.6,17.84l-1.98,0.21L531.6,204.21z M531.99,213.11c-0.29-1.74,0.68-2.83,2.78-3.05
			c2.1-0.22,3.39,0.63,3.68,2.38l0.92,5.57c0.29,1.74-0.68,2.83-2.78,3.05c-2.1,0.22-3.39-0.63-3.67-2.38L531.99,213.11z
			 M535.06,218.59c0.12,0.75,0.57,1.02,1.27,0.95c0.67-0.07,1.04-0.43,0.92-1.18l-0.96-5.81c-0.12-0.75-0.6-1.02-1.27-0.95
			c-0.7,0.07-1.04,0.43-0.92,1.18L535.06,218.59z"/>
	</g>
	<g>
		<g>
			<polygon class="st0" points="551.05,241.8 503.84,248.28 543.79,224.38 			"/>
		</g>
		<g>
			<path class="st1" d="M503.84,248.98c-0.35,0-0.67-0.16-0.81-0.42c-0.16-0.3-0.05-0.65,0.28-0.84l39.95-23.9
				c0.23-0.14,0.52-0.18,0.8-0.11c0.27,0.07,0.49,0.24,0.58,0.45l7.26,17.42c0.08,0.19,0.05,0.41-0.08,0.58
				c-0.13,0.18-0.35,0.3-0.61,0.33L504,248.97C503.94,248.98,503.89,248.98,503.84,248.98z M543.34,225.53l-36.04,21.56l42.58-5.84
				L543.34,225.53z"/>
		</g>
	</g>
	<g>
		<g>
			<polygon class="st6" points="420.51,160.25 565.69,141.27 572.01,194.74 426.7,210.25 			"/>
		</g>
		<g>
			<path class="st7" d="M426.7,210.95c-0.2,0-0.39-0.05-0.55-0.15c-0.19-0.12-0.31-0.29-0.33-0.48l-6.19-50
				c-0.05-0.37,0.28-0.7,0.74-0.76l145.18-18.98c0.24-0.03,0.49,0.02,0.68,0.14c0.19,0.12,0.32,0.3,0.34,0.49l6.32,53.46
				c0.04,0.38-0.29,0.71-0.76,0.76l-145.32,15.51C426.78,210.95,426.74,210.95,426.7,210.95z M421.47,160.84l6.02,48.61
				l143.57-15.33l-6.16-52.04L421.47,160.84z"/>
		</g>
	</g>
	<g>
		<path class="st4" d="M426.32,170.4l8.45-1.03c5.34-0.65,8.42,1.38,9.26,5.71l2.64,13.68c0.84,4.33-1.33,7.01-6.67,7.66l-8.45,1.03
			L426.32,170.4z M432.41,173.62l3.73,19.32l3.01-0.37c1.7-0.21,2.59-1.03,2.21-2.96l-2.72-14.07c-0.37-1.93-1.53-2.5-3.23-2.29
			L432.41,173.62z"/>
		<path class="st4" d="M453.68,178.73l7.33-0.9l0.75,3.86l-7.33,0.9l1.53,7.92l9.23-1.13l0.75,3.86l-14.57,1.78l-5.23-27.05
			l14.57-1.78l0.75,3.86l-9.23,1.13L453.68,178.73z"/>
		<path class="st4" d="M464.01,165.79l5.34-0.65l4.48,23.19l8.79-1.08l0.75,3.86l-14.13,1.73L464.01,165.79z"/>
		<path class="st4" d="M480.47,163.78l5.34-0.65l5.23,27.05l-5.34,0.65L480.47,163.78z"/>
		<path class="st4" d="M501.98,183.74l0.1-0.01l-0.23-22.56l4.91-0.6l-0.02,27.69l-7.97,0.97l-10.47-26.41l5.39-0.66L501.98,183.74z
			"/>
		<path class="st4" d="M516.77,171.01l7.33-0.9l0.75,3.86l-7.33,0.9l1.53,7.92l9.23-1.13l0.75,3.86l-14.57,1.78l-5.23-27.05
			l14.57-1.78l0.75,3.86l-9.23,1.13L516.77,171.01z"/>
		<path class="st4" d="M543.5,183.76c-0.43-0.66-0.7-1.06-1.13-3.26l-0.82-4.25c-0.49-2.51-1.73-3.31-4.16-3.01l-1.85,0.23
			l2.13,11.01l-5.34,0.65l-5.23-27.05l8.06-0.99c5.54-0.68,8.31,1.08,9.12,5.25l0.41,2.13c0.54,2.78-0.24,4.7-2.44,5.88l0.02,0.08
			c2.84,0.56,4.11,2.46,4.65,5.29l0.81,4.17c0.25,1.31,0.49,2.27,1.22,3.21L543.5,183.76z M533.19,161.29l1.61,8.31l2.09-0.26
			c1.99-0.24,3.07-1.09,2.65-3.25l-0.52-2.67c-0.37-1.93-1.36-2.68-3.26-2.45L533.19,161.29z"/>
		<path class="st4" d="M554.63,173.22l-10.25-17.26l5.59-0.68l6.41,11.83l0.1-0.01l1.65-12.82l5.1-0.62l-3.26,18.91l1.73,8.96
			l-5.34,0.65L554.63,173.22z"/>
	</g>
</g>
</svg>
