<?xml version="1.0" encoding="utf-8"?>
<!-- Generator: Adobe Illustrator 23.0.3, SVG Export Plug-In . SVG Version: 6.00 Build 0)  -->
<svg version="1.1" id="Layer_1" xmlns="http://www.w3.org/2000/svg" xmlns:xlink="http://www.w3.org/1999/xlink" x="0px" y="0px"
	 viewBox="0 0 841.89 595.28" style="enable-background:new 0 0 841.89 595.28;" xml:space="preserve">
<style type="text/css">
	.st0{fill-rule:evenodd;clip-rule:evenodd;fill:#2AA7DF;}
	.st1{opacity:0.3;fill-rule:evenodd;clip-rule:evenodd;fill:#2AA7DF;}
	.st2{fill-rule:evenodd;clip-rule:evenodd;fill:#44C5E5;}
	.st3{opacity:0.2;fill-rule:evenodd;clip-rule:evenodd;fill:#4AC8F3;}
	.st4{opacity:0.9;fill-rule:evenodd;clip-rule:evenodd;fill:#6BCEEF;}
	.st5{fill:#191918;}
	.st6{opacity:0.9;fill:#6BCEEF;}
</style>
<g>
	<path class="st0" d="M184.66,167.41c0,0,1.66,10.49,0.46,11.06c-1.2,0.56-5.75,0.73-5.89,1.86c-0.14,1.13,8.77-0.02,8.77-0.02
		v-11.1L184.66,167.41z"/>
	<path class="st0" d="M197.35,167.41c0,0-1.09,10.49,0.11,11.06c1.2,0.56,4.9,0.73,5.04,1.86c0.14,1.13-8.49-0.02-8.49-0.02v-11.1
		L197.35,167.41z"/>
	<path class="st0" d="M206.95,112.36c0,0,5.86-1.69,10.17-6.31c4.31-4.62,7.06-12.16,7.72-13.97c1.32-3.63-1.67-6.14-0.68-7.04
		c1-0.91,3.08,1.76,3.08,1.76s0.53-3.98,1.8-4.41c0.96-0.32,0.31,4.87,0.31,4.87s4.17-3.11,4.73-2.06c0.56,1.04-2.96,3.97-2.96,3.97
		s2.59,0.79,2.59,1.76c0,1-3.99,0.3-5.68,2.77c-0.78,1.14-3.54,10.01-8.38,15.23c-5.71,6.16-13.55,8.71-13.55,8.71L206.95,112.36z"
		/>
	<path class="st0" d="M181.65,119.75c0,0-7.85,1.89-15.13,2.01c-5.36,0.09-10.38-1.42-11.9-2.01c-3.59-1.41-3.5-5.32-4.83-5.17
		c-1.34,0.14-0.72,3.48-0.72,3.48s-3.34-2.24-4.5-1.56c-0.88,0.51,3.44,3.45,3.44,3.45s-5.09,1.07-4.68,2.18
		c0.41,1.11,4.93,0.41,4.93,0.41s-1.12,2.47-0.4,3.11c0.75,0.66,2.86-2.79,5.84-2.43c1.19,0.15,6.59,1.77,12.7,1.63
		c9.12-0.2,19.75-2.24,19.75-2.24L181.65,119.75z"/>
	<path class="st1" d="M217.3,105.84c-0.06,0.07-0.12,0.14-0.18,0.21c-4.31,4.62-10.17,6.31-10.17,6.31l-0.84,5.27
		c0,0,7.84-2.54,13.55-8.71c1.06-1.14,2.01-2.46,2.87-3.84C220.83,105.44,219.09,105.7,217.3,105.84z"/>
	<path class="st1" d="M166.15,124.85c0.09,0,0.17,0,0.26,0c9.12-0.2,19.75-2.24,19.75-2.24l-4.51-2.86c0,0-7.85,1.89-15.13,2.01
		c-1.08,0.02-2.14-0.03-3.17-0.12C164.36,122.66,165.29,123.73,166.15,124.85z"/>
	<path class="st2" d="M178.38,101.2c-3.26,0.97-18.35,9.48-23.81,7.32c-2.68-1.06-3.8-22.86,0.19-25.68
		c1.88-1.33,28.31-17.54,40.45-16.45c11.03-0.05,12.57,7.18,12.6,14.71c0.08,26.23,1.07,83.22-1.37,87.1
		c-3.27,5.19-24.2,5.61-28.45-0.97C175.18,162.9,178.38,103.16,178.38,101.2z"/>
	<path class="st3" d="M177.74,116.09c-0.76,18.55-1.69,48.14,0.25,51.15c3.01,4.65,14.32,5.8,21.86,4.25
		C187.68,159.41,180.63,134.16,177.74,116.09z"/>
	<path class="st3" d="M156.43,81.79c-0.86,0.53-1.44,0.9-1.66,1.06c-3.99,2.82-2.87,24.62-0.19,25.68c1.17,0.46,2.78,0.48,4.62,0.23
		C157.54,100.61,156.7,90.01,156.43,81.79z"/>
	<path class="st4" d="M193.83,89.55c-0.43,4.97,9.44,4.61,9.61,0.55C203.6,86.03,194.16,85.69,193.83,89.55z"/>
	<path class="st4" d="M171.24,89.55c-0.43,4.97,9.44,4.61,9.61,0.55C181.02,86.03,171.58,85.69,171.24,89.55z"/>
	<path class="st5" d="M186.88,93.06c-1.96,0-3.55-1.59-3.55-3.55c0-0.28,0.22-0.5,0.5-0.5c0.28,0,0.5,0.22,0.5,0.5
		c0,1.41,1.14,2.55,2.55,2.55c1.41,0,2.55-1.14,2.55-2.55c0-0.28,0.22-0.5,0.5-0.5c0.28,0,0.5,0.22,0.5,0.5
		C190.43,91.47,188.84,93.06,186.88,93.06z"/>
	<path class="st5" d="M197,88h-4.16c-0.2,0-0.38-0.12-0.46-0.3c-0.08-0.18-0.04-0.4,0.1-0.54l3.82-4c0.19-0.2,0.51-0.21,0.71-0.02
		c0.2,0.19,0.21,0.51,0.02,0.71L194.01,87H197c0.28,0,0.5,0.22,0.5,0.5S197.28,88,197,88z"/>
	<path class="st5" d="M181.55,88H178c-0.28,0-0.5-0.22-0.5-0.5s0.22-0.5,0.5-0.5h2.44l-2.78-3.17c-0.18-0.21-0.16-0.52,0.05-0.71
		c0.21-0.18,0.52-0.16,0.71,0.05l3.51,4c0.13,0.15,0.16,0.36,0.08,0.54C181.92,87.89,181.74,88,181.55,88z"/>
	<path class="st6" d="M200.61,165c-0.07,0-0.14,0-0.21-0.01c-1.65-0.11-2.9-1.55-2.79-3.2c0.11-1.65,0.11-3.32,0.1-5.09
		c0-0.58,0-1.16,0-1.73c0.01-1.65,1.35-2.99,3-2.99c0,0,0.01,0,0.01,0c1.66,0.01,2.99,1.35,2.99,3.01c0,0.56,0,1.13,0,1.69
		c0.01,1.8,0.01,3.66-0.12,5.53C203.49,163.79,202.17,165,200.61,165z"/>
	<path class="st6" d="M200.72,147.83c-1.66,0-3-1.34-3-3c-0.02-11.93-0.06-23.86-0.12-35.79c-0.01-1.66,1.33-3.01,2.99-3.01
		c0,0,0.01,0,0.01,0c1.65,0,2.99,1.33,3,2.99c0.06,11.94,0.1,23.88,0.12,35.82C203.72,146.48,202.38,147.83,200.72,147.83
		C200.72,147.83,200.72,147.83,200.72,147.83z"/>
	<path class="st6" d="M197.96,77.41c-0.08-0.17-2.09-4.2-11.43-0.84c-1.56,0.56-3.28-0.25-3.84-1.81c-0.56-1.56,0.25-3.28,1.81-3.84
		c15.1-5.43,18.87,3.85,19.02,4.25c0,0,0.36,2.37-1.83,3.11c-2.76,0.93-3.77-0.96-3.77-0.96L197.96,77.41z"/>
</g>
</svg>
