<?xml version="1.0" encoding="utf-8"?>
<!-- Generator: Adobe Illustrator 23.0.3, SVG Export Plug-In . SVG Version: 6.00 Build 0)  -->
<svg version="1.1" id="Layer_1" xmlns="http://www.w3.org/2000/svg" xmlns:xlink="http://www.w3.org/1999/xlink" x="0px" y="0px"
	 viewBox="0 0 841.89 595.28" style="enable-background:new 0 0 841.89 595.28;" xml:space="preserve">
<style type="text/css">
	.st0{fill-rule:evenodd;clip-rule:evenodd;fill:#3DBCA0;}
	.st1{opacity:0.3;fill-rule:evenodd;clip-rule:evenodd;fill:#3DBCA0;}
	.st2{fill-rule:evenodd;clip-rule:evenodd;fill:#53C0AA;}
	.st3{opacity:0.5;fill-rule:evenodd;clip-rule:evenodd;fill:#7ACBBE;}
	.st4{opacity:0.2;fill-rule:evenodd;clip-rule:evenodd;fill:#5CC3B0;}
	.st5{fill-rule:evenodd;clip-rule:evenodd;fill:#191918;}
	.st6{fill:#191918;}
	.st7{fill-rule:evenodd;clip-rule:evenodd;fill:#FFFFFF;}
	.st8{fill:#6EC8B9;}
</style>
<g>
	<path class="st0" d="M203.75,167.81c0,0,1.17,10.18,0.11,10.72c-1.06,0.55-4.64,0.71-4.76,1.8c-0.12,1.09,7.19-0.02,7.19-0.02
		v-10.77L203.75,167.81z"/>
	<path class="st0" d="M168.02,167.81c0,0-1.23,10.18-0.17,10.72c1.06,0.55,4.73,0.71,4.85,1.8c0.12,1.09-7.1-0.02-7.1-0.02v-10.77
		L168.02,167.81z"/>
	<path class="st0" d="M206.03,115.06c0,0,5.37-0.53,9.88-4.13c4.51-3.6,8.16-10.27,9.04-11.88c1.75-3.21-0.42-6.16,0.59-6.83
		c1.02-0.68,2.38,2.25,2.38,2.25s1.13-3.69,2.3-3.86c0.89-0.13-0.55,4.69-0.55,4.69s4.14-2.19,4.45-1.09
		c0.32,1.1-3.23,3.23-3.23,3.23s2.11,1.23,1.95,2.15c-0.17,0.95-3.51-0.45-5.39,1.59c-0.87,0.94-4.75,8.87-9.82,12.95
		c-5.98,4.81-13.21,5.79-13.21,5.79L206.03,115.06z"/>
	<path class="st0" d="M167.33,138.52c0,0-5.18-1.64-8.98-6.12c-3.8-4.48-6.24-11.79-6.82-13.55c-1.16-3.52,1.48-5.96,0.6-6.83
		c-0.88-0.88-2.72,1.71-2.72,1.71s-0.47-3.86-1.59-4.27c-0.85-0.31-0.28,4.72-0.28,4.72s-3.68-3.01-4.18-2
		c-0.5,1.01,2.61,3.85,2.61,3.85s-2.29,0.77-2.29,1.71c0,0.97,3.52,0.29,5.02,2.69c0.69,1.1,3.13,9.7,7.4,14.77
		c5.04,5.98,11.97,8.44,11.97,8.44L167.33,138.52z"/>
	<path class="st1" d="M223.49,101.6c-1.66,2.74-4.4,6.79-7.58,9.33c-4.51,3.6-9.88,4.13-9.88,4.13l-1.61,4.86
		c0,0,7.23-0.98,13.21-5.79c4.46-3.58,8-10.15,9.38-12.32C225.84,101.8,224.67,101.74,223.49,101.6z"/>
	<path class="st1" d="M158.35,132.4c-1.56-1.83-2.88-4.14-3.94-6.35c-1.63-0.98-3.21-2.08-4.74-3.28c1.2,3.18,3.33,8.72,6.44,12.41
		c5.04,5.98,11.97,8.44,11.97,8.44l-0.74-5.11C167.33,138.52,162.16,136.88,158.35,132.4z"/>
	<path class="st2" d="M183.69,146.24c9.7,0,29.13-4.27,37.02,5.08c7.07,8.37-0.77,20.88-11.87,20.88
		c-7.52,0.14-38.16,0.96-44.21,0.96c-11.27,0-18.37-15.87-12.64-26.91c1.36-2.62,12.89-14.32,20.72-25.29
		c7.45-10.45,14.94-20.04,8.64-22.82c-5.63-2.49-15.1,11.07-22.97,7.13c-10.03-5.03-10.38-20.86,2.03-29.08
		c31.08-20.58,53.44-6.06,57.6,17.88C222.38,119.27,191.57,139.12,183.69,146.24z"/>
	<path class="st3" d="M193.77,85.84c0,5.9,11.49,4.76,11.48,0C205.24,80.36,193.77,78.2,193.77,85.84z"/>
	<path class="st3" d="M180.39,85.37c-0.04-4.41-11.54-7.02-11.65,0C168.64,91.48,180.44,90.36,180.39,85.37z"/>
	<path class="st4" d="M201.38,169.34c-11.17-2.38-20.88-9.83-27.69-19.73c-3.84-5.59-6.89-11.7-9.26-18.14
		c-5.94,7.06-11.53,12.99-12.45,14.77c-5.73,11.05,1.37,26.91,12.64,26.91c6.06,0,36.7-0.82,44.21-0.96c4.01,0,7.59-1.64,10.2-4.12
		C213.32,169.94,207.34,170.61,201.38,169.34z"/>
	<path class="st4" d="M158.37,105.26c0.01,0,0.02,0.01,0.02,0.01c-0.61-4.87-1.01-9.78-1.12-14.7c-0.09-4.13-0.19-8.3,0.47-12.34
		C148.12,86.8,149.12,100.62,158.37,105.26z"/>
	<path class="st5" d="M197,82.29c0,1.96-1.45,3.55-3.24,3.55c-1.79,0-3.23-1.59-3.23-3.55c0-1.96,1.45-3.55,3.23-3.55
		C195.56,78.74,197,80.33,197,82.29z"/>
	<path class="st6" d="M187.17,90.76c-1.73,0-3.14-1.55-3.14-3.45c0-0.27,0.2-0.5,0.45-0.5c0.25,0,0.45,0.22,0.45,0.5
		c0,1.36,1,2.46,2.24,2.46c1.24,0,2.24-1.1,2.24-2.46c0-0.27,0.2-0.5,0.45-0.5c0.25,0,0.45,0.22,0.45,0.5
		C190.32,89.21,188.91,90.76,187.17,90.76z"/>
	<path class="st7" d="M195.62,82.29c0,0.72-0.53,1.3-1.18,1.3c-0.65,0-1.18-0.58-1.18-1.3c0-0.72,0.53-1.3,1.18-1.3
		C195.09,80.99,195.62,81.57,195.62,82.29z"/>
	<path class="st7" d="M192.46,83.13c0,0.25-0.18,0.45-0.41,0.45c-0.23,0-0.41-0.2-0.41-0.45c0-0.25,0.18-0.45,0.41-0.45
		C192.27,82.69,192.46,82.89,192.46,83.13z"/>
	<path class="st5" d="M182.73,82.29c0,1.96-1.45,3.55-3.24,3.55c-1.79,0-3.23-1.59-3.23-3.55c0-1.96,1.45-3.55,3.23-3.55
		C181.28,78.74,182.73,80.33,182.73,82.29z"/>
	<path class="st7" d="M181.34,82.29c0,0.72-0.53,1.3-1.18,1.3c-0.65,0-1.18-0.58-1.18-1.3c0-0.72,0.53-1.3,1.18-1.3
		C180.81,80.99,181.34,81.57,181.34,82.29z"/>
	<path class="st7" d="M178.18,83.13c0,0.25-0.18,0.45-0.41,0.45c-0.22,0-0.41-0.2-0.41-0.45c0-0.25,0.18-0.45,0.41-0.45
		C177.99,82.69,178.18,82.89,178.18,83.13z"/>
	<path class="st8" d="M209.62,106.13c-0.25,0-0.51-0.04-0.77-0.12c-1.44-0.46-2.26-2.12-1.84-3.7c0.72-2.68,1.06-5.37,1.01-7.99
		c-0.03-1.64,1.16-3.01,2.65-3.04c1.51-0.04,2.74,1.27,2.77,2.91c0.06,3.24-0.35,6.53-1.23,9.8
		C211.88,105.29,210.79,106.13,209.62,106.13z"/>
	<path class="st8" d="M181.88,138.93c-0.94,0-1.85-0.53-2.35-1.48c-0.75-1.42-0.31-3.24,0.98-4.07c9.57-6.1,17.6-14.24,22.62-22.91
		c0.8-1.39,2.48-1.8,3.74-0.92c1.26,0.88,1.64,2.72,0.84,4.11c-5.48,9.46-14.17,18.29-24.47,24.86
		C182.81,138.8,182.34,138.93,181.88,138.93z"/>
	<path class="st8" d="M217.23,162.56c-0.06,0-0.11,0-0.17-0.01c-1.49-0.1-2.63-1.51-2.54-3.15c0.04-0.74-0.13-1.3-0.54-1.8
		c-1.36-1.63-4.8-2.26-6.25-2.31c-1.5-0.05-2.67-1.43-2.63-3.07c0.05-1.64,1.3-2.95,2.8-2.88c0.69,0.02,6.84,0.35,10.09,4.25
		c1.41,1.69,2.08,3.83,1.95,6.17C219.85,161.35,218.65,162.56,217.23,162.56z"/>
</g>
</svg>
