<?xml version="1.0" encoding="utf-8"?>
<!-- Generator: Adobe Illustrator 23.0.3, SVG Export Plug-In . SVG Version: 6.00 Build 0)  -->
<svg version="1.1" id="Layer_1" xmlns="http://www.w3.org/2000/svg" xmlns:xlink="http://www.w3.org/1999/xlink" x="0px" y="0px"
	 viewBox="0 0 841.89 595.28" style="enable-background:new 0 0 841.89 595.28;" xml:space="preserve">
<style type="text/css">
	.st0{fill-rule:evenodd;clip-rule:evenodd;fill:#64AB45;}
	.st1{opacity:0.2;fill-rule:evenodd;clip-rule:evenodd;fill:#64AB45;}
	.st2{fill-rule:evenodd;clip-rule:evenodd;fill:#85C552;}
	.st3{opacity:0.5;fill-rule:evenodd;clip-rule:evenodd;fill:#A1CF6D;}
	.st4{opacity:0.2;fill-rule:evenodd;clip-rule:evenodd;fill:#89C75E;}
	.st5{fill:#191918;}
	.st6{fill-rule:evenodd;clip-rule:evenodd;fill:#191918;}
	.st7{fill-rule:evenodd;clip-rule:evenodd;fill:#FFFFFF;}
	.st8{opacity:0.7;fill:#A1CF6D;}
</style>
<g>
	<path class="st0" d="M172.75,167.14c0,0,1.02,10.71-0.04,11.28c-1.06,0.58-4.42,0.74-4.54,1.9c-0.12,1.15,7.43-0.02,7.43-0.02
		v-11.33L172.75,167.14z"/>
	<path class="st0" d="M194.53,167.14c0,0-1.19,10.71-0.13,11.28c1.06,0.58,4.68,0.74,4.8,1.9c0.12,1.15-7.17-0.02-7.17-0.02v-11.33
		L194.53,167.14z"/>
	<path class="st0" d="M208.63,156.01c0,0,5.27-1.34,9.33-5.76c4.06-4.42,6.91-11.92,7.6-13.73c1.37-3.61-1.13-6.36-0.21-7.22
		c0.93-0.86,2.62,1.99,2.62,1.99s0.69-4.02,1.84-4.37c0.87-0.26,0,4.98,0,4.98s3.85-2.89,4.29-1.79c0.44,1.1-2.83,3.85-2.83,3.85
		s2.24,0.98,2.19,1.96c-0.06,1.01-3.54,0.05-5.17,2.46c-0.75,1.11-3.68,9.96-8.25,14.96c-5.38,5.91-12.45,7.99-12.45,7.99
		L208.63,156.01z"/>
	<path class="st0" d="M168.82,152.87c0,0-5.27-1.34-9.33-5.76c-4.06-4.42-6.91-11.92-7.6-13.73c-1.37-3.61,1.13-6.36,0.21-7.22
		c-0.93-0.86-2.62,1.99-2.62,1.99s-0.69-4.02-1.84-4.37c-0.87-0.26,0,4.98,0,4.98s-3.85-2.89-4.29-1.79
		c-0.44,1.1,2.83,3.85,2.83,3.85s-2.24,0.98-2.19,1.96c0.06,1.01,3.54,0.05,5.17,2.46c0.75,1.11,3.68,9.96,8.25,14.96
		c5.38,5.91,12.45,7.99,12.45,7.99L168.82,152.87z"/>
	<path class="st1" d="M222.83,142.78c-1.28,2.56-2.94,5.36-4.87,7.47c-4.06,4.42-9.33,5.76-9.33,5.76l-1.03,5.31
		c0,0,7.06-2.08,12.45-7.99c3.06-3.36,5.38-8.44,6.81-11.76C225.56,142.1,224.22,142.51,222.83,142.78z"/>
	<path class="st1" d="M168.82,152.87c0,0-5.27-1.34-9.33-5.76c-2.5-2.73-4.55-6.63-5.91-9.64c0.12,2.61,0.25,5.23,0.38,7.84
		c1.01,1.76,2.16,3.47,3.45,4.88c5.38,5.91,12.45,7.99,12.45,7.99L168.82,152.87z"/>
	<path class="st2" d="M206.61,118.54c10.38,5.33,14.41,14.76,12.82,27.28c-1.66,13.02-9.41,21.32-19.65,24.53
		c-11.36,3.56-24.43,1.81-35.47-3.21c-9.69-4.4-9.59-14.71-3.34-22.8c4.99-6.46,27.3,16.5,33.03-2.35
		c1.48-11.47-17.33-10.18-21.54-10.83c-7.01-0.81-9.96-22.55,1.66-22.55c2.61,0,18.71-0.97,18.86-9.7
		c0.29-16.81-18.79-7.37-25.99-4.02c-12.64,2.57-12.64-16.9-4.19-21.51c17.83-9.73,32.9-9.44,45.88,1.37
		C219.76,83.98,223.64,106.63,206.61,118.54z"/>
	<path class="st3" d="M170.05,120.02c-2.4,7.88,9.89,7.02,10.41,3.1C181.2,117.54,171.86,114.06,170.05,120.02z"/>
	<path class="st3" d="M194.89,120.37c-0.01,6.13,10.59,5.43,10.61-0.25C205.51,115.21,194.89,115.45,194.89,120.37z"/>
	<path class="st4" d="M207.41,117.94c15.73-11.78,12.33-33.11,1.98-42.55C212.84,89,211.76,104.54,207.41,117.94z"/>
	<path class="st4" d="M207.11,118.82c-0.16,0.49-0.33,0.98-0.5,1.45c-2.87,7.98-7.15,14.88-12.54,20.48c0,0.39-0.02,0.8-0.07,1.23
		c-2.04,6.69-6.16,8.11-10.85,7.45c-0.12,0.07-0.24,0.15-0.37,0.23c-7.98,4.67-17.48,7.93-26.18,5.71
		c-0.16,4.84,2.18,9.26,7.7,11.76c11.04,5.01,24.11,6.77,35.47,3.21c10.24-3.21,18-11.51,19.65-24.53
		C220.99,133.51,217.1,124.2,207.11,118.82z"/>
	<path class="st5" d="M187.81,125.84c-1.73,0-3.13-1.62-3.13-3.61c0-0.28,0.19-0.5,0.43-0.5c0.24,0,0.43,0.22,0.43,0.5
		c0,1.44,1.02,2.61,2.26,2.61c1.25,0,2.26-1.17,2.26-2.61c0-0.28,0.19-0.5,0.43-0.5c0.24,0,0.43,0.22,0.43,0.5
		C190.94,124.22,189.54,125.84,187.81,125.84z"/>
	<path class="st6" d="M182.67,116.95c0,2.06-1.45,3.74-3.24,3.74c-1.79,0-3.24-1.67-3.24-3.74c0-2.06,1.45-3.74,3.24-3.74
		C181.22,113.22,182.67,114.89,182.67,116.95z"/>
	<path class="st7" d="M181.28,116.95c0,0.75-0.53,1.37-1.19,1.37c-0.66,0-1.19-0.61-1.19-1.37c0-0.76,0.53-1.37,1.19-1.37
		C180.75,115.58,181.28,116.19,181.28,116.95z"/>
	<path class="st7" d="M178.12,117.84c0,0.26-0.18,0.47-0.41,0.47c-0.23,0-0.41-0.21-0.41-0.47c0-0.26,0.18-0.47,0.41-0.47
		C177.93,117.37,178.12,117.58,178.12,117.84z"/>
	<path class="st5" d="M198.94,117.29h-6.85c-0.17,0-0.33-0.12-0.4-0.3s-0.04-0.39,0.08-0.54l3.43-4.19c0.16-0.2,0.44-0.21,0.61-0.02
		c0.17,0.19,0.18,0.5,0.02,0.7l-2.74,3.35h5.85c0.24,0,0.43,0.22,0.43,0.5C199.37,117.07,199.17,117.29,198.94,117.29z"/>
	<path class="st8" d="M201.33,79.04c-0.27,0-0.54-0.05-0.81-0.15c-6.87-2.6-16.62-2.66-24.84-0.14c-1.38,0.42-2.8-0.53-3.17-2.12
		c-0.37-1.6,0.46-3.23,1.84-3.66c9.12-2.8,20.03-2.71,27.79,0.24c1.36,0.52,2.1,2.21,1.65,3.78
		C203.44,78.24,202.42,79.04,201.33,79.04z"/>
	<path class="st8" d="M162.41,87.77c-0.15,0-0.3-0.01-0.45-0.05c-1.41-0.28-2.35-1.83-2.11-3.46c0.72-4.78,3.63-8.46,7.4-9.38
		c1.4-0.34,2.78,0.7,3.07,2.31c0.29,1.62-0.6,3.2-2,3.54c-2.04,0.5-3.08,2.76-3.35,4.55C164.74,86.74,163.65,87.77,162.41,87.77z"/>
</g>
</svg>
